<svg xmlns="http://www.w3.org/2000/svg" width="54" height="54" viewBox="0 0 300 300"><g><path d="m150 50c-55.139 0-100 44.861-100 100s44.861 100 100 100 100-44.861 100-100-44.861-100-100-100zm53.299 117.943c1.904-5.639 2.951-11.669 2.951-17.943s-1.048-12.303-2.951-17.943l23.661-23.661c6.72 12.381 10.54 26.554 10.54 41.604s-3.821 29.223-10.54 41.604zm-97.049-17.943c0-24.121 19.626-43.75 43.75-43.75s43.75 19.629 43.75 43.75-19.626 43.75-43.75 43.75-43.75-19.629-43.75-43.75zm85.354-76.959-23.661 23.661c-5.64-1.904-11.67-2.952-17.943-2.952s-12.303 1.048-17.943 2.952l-23.661-23.662c12.381-6.719 26.554-10.54 41.604-10.54s29.223 3.821 41.604 10.541zm-118.563 35.355 23.661 23.661c-1.904 5.64-2.952 11.67-2.952 17.943s1.048 12.304 2.952 17.943l-23.661 23.661c-6.72-12.381-10.541-26.554-10.541-41.604s3.821-29.224 10.541-41.604zm35.355 118.564 23.661-23.661c5.639 1.904 11.669 2.952 17.943 2.952s12.304-1.048 17.943-2.952l23.661 23.661c-12.38 6.719-26.554 10.54-41.604 10.54s-29.223-3.821-41.604-10.54z"/></g></svg>
